<?xml version="1.0" encoding="utf-8"?>
<svg version="1.1" xmlns:xlink="http://www.w3.org/1999/xlink" width="226px" height="59px" xmlns="http://www.w3.org/2000/svg">
  <g transform="matrix(1 0 0 1 -179 -342 )">
    <path d="M 180.399581589958 395.333362199253  C 180.399581589958 395.333362199253  180.399581589958 356.448617631716  180.399581589958 356.448617631716  C 180.399581589958 354.971710592233  181.124293393318 353.588818087065  182.338729504127 352.748342426479  C 182.338729504127 352.748342426479  190.35626832307 342.731840780931  190.35626832307 342.731840780931  C 190.35626832307 342.731840780931  201.142605472537 351.948617631716  201.142605472537 351.948617631716  C 201.142605472537 351.948617631716  400 351.948617631716  400 351.948617631716  C 402.485281374238 351.948617631716  404.5 353.963336257478  404.5 356.448617631716  C 404.5 356.448617631716  404.5 395.333362199253  404.5 395.333362199253  C 404.5 397.818643573492  402.485281374238 399.833362199253  400 399.833362199253  C 400 399.833362199253  184.899581589958 399.833362199253  184.899581589958 399.833362199253  C 182.41430021572 399.833362199253  180.399581589958 397.818643573492  180.399581589958 395.333362199253  Z " fill-rule="nonzero" fill="#ffffff" stroke="none" />
    <path d="M 179.899581589958 395.333362199253  C 179.899581589958 395.333362199253  179.899581589958 356.448617631716  179.899581589958 356.448617631716  C 179.899581589958 354.834100716694  180.67918090763 353.318939860843  181.992840448242 352.380343312664  C 181.992840448242 352.380343312664  190.28855721393 342.016307352128  190.28855721393 342.016307352128  C 190.28855721393 342.016307352128  201.327131806885 351.448617631716  201.327131806885 351.448617631716  C 201.327131806885 351.448617631716  400 351.448617631716  400 351.448617631716  C 402.761423749154 351.448617631716  405 353.687193882562  405 356.448617631716  C 405 356.448617631716  405 395.333362199253  405 395.333362199253  C 405 398.094785948407  402.761423749154 400.333362199253  400 400.333362199253  C 400 400.333362199253  184.899581589958 400.333362199253  184.899581589958 400.333362199253  C 182.138157840804 400.333362199253  179.899581589958 398.094785948407  179.899581589958 395.333362199253  Z M 180.899581589958 395.333362199253  C 180.899581589958 397.542501198576  182.690442590635 399.333362199253  184.899581589958 399.333362199253  C 184.899581589958 399.333362199253  400 399.333362199253  400 399.333362199253  C 402.209138999323 399.333362199253  404 397.542501198576  404 395.333362199253  C 404 395.333362199253  404 356.448617631716  404 356.448617631716  C 404 354.239478632393  402.209138999323 352.448617631716  400 352.448617631716  C 400 352.448617631716  200.958079138188 352.448617631716  200.958079138188 352.448617631716  C 200.958079138188 352.448617631716  190.42397943221 343.447374209733  190.42397943221 343.447374209733  C 190.42397943221 343.447374209733  182.682015414009 353.119593712414  182.682015414009 353.119593712414  C 181.568508174763 353.861335451219  180.899581589958 355.110679225459  180.899581589958 356.448617631716  C 180.899581589958 356.448617631716  180.899581589958 395.333362199253  180.899581589958 395.333362199253  Z " fill-rule="nonzero" fill="#d7d7d7" stroke="none" />
  </g>
</svg>