<?xml version="1.0" encoding="utf-8"?>
<svg version="1.1" xmlns:xlink="http://www.w3.org/1999/xlink" width="227px" height="70px" xmlns="http://www.w3.org/2000/svg">
  <g transform="matrix(1 0 0 1 -786 -293 )">
    <path d="M 786.5 348.288954901431  C 786.5 348.288954901431  786.5 298  786.5 298  C 786.5 295.514718625761  788.514718625761 293.5  791 293.5  C 791 293.5  1008 293.5  1008 293.5  C 1010.48528137424 293.5  1012.5 295.514718625761  1012.5 298  C 1012.5 298  1012.5 348.288954901431  1012.5 348.288954901431  C 1012.5 350.77423627567  1010.48528137424 352.788954901431  1008 352.788954901431  C 1008 352.788954901431  825.24245867133 352.788954901431  825.24245867133 352.788954901431  C 825.24245867133 352.788954901431  802.330750933574 361.401837459266  802.330750933574 361.401837459266  C 802.330750933574 361.401837459266  800.826016720315 352.788954901431  800.826016720315 352.788954901431  C 800.826016720315 352.788954901431  791 352.788954901431  791 352.788954901431  C 788.514718625761 352.788954901431  786.5 350.77423627567  786.5 348.288954901431  Z " fill-rule="nonzero" fill="#ffffff" stroke="none" />
    <path d="M 786 348.288954901431  C 786 348.288954901431  786 298  786 298  C 786 295.238576250846  788.238576250846 293  791 293  C 791 293  1008 293  1008 293  C 1010.76142374915 293  1013 295.238576250846  1013 298  C 1013 298  1013 348.288954901431  1013 348.288954901431  C 1013 351.050378650585  1010.76142374915 353.288954901431  1008 353.288954901431  C 1008 353.288954901431  825.333333333333 353.288954901431  825.333333333333 353.288954901431  C 825.333333333333 353.288954901431  801.942028985507 362.082125603866  801.942028985507 362.082125603866  C 801.942028985507 362.082125603866  800.405797101451 353.288954901431  800.405797101451 353.288954901431  C 800.405797101451 353.288954901431  791 353.288954901431  791 353.288954901431  C 788.238576250846 353.288954901431  786 351.050378650585  786 348.288954901431  Z M 787 348.288954901431  C 787 350.498093900754  788.790861000677 352.288954901431  791 352.288954901431  C 791 352.288954901431  801.24623633918 352.288954901431  801.24623633918 352.288954901431  C 801.24623633918 352.288954901431  802.719472881641 360.721549314665  802.719472881641 360.721549314665  C 802.719472881641 360.721549314665  825.151584009326 352.288954901431  825.151584009326 352.288954901431  C 825.151584009326 352.288954901431  1008 352.288954901431  1008 352.288954901431  C 1010.20913899932 352.288954901431  1012 350.498093900754  1012 348.288954901431  C 1012 348.288954901431  1012 298  1012 298  C 1012 295.790861000677  1010.20913899932 294  1008 294  C 1008 294  791 294  791 294  C 788.790861000677 294  787 295.790861000677  787 298  C 787 298  787 348.288954901431  787 348.288954901431  Z " fill-rule="nonzero" fill="#d7d7d7" stroke="none" />
  </g>
</svg>