<?xml version="1.0" encoding="utf-8"?>
<svg version="1.1" xmlns:xlink="http://www.w3.org/1999/xlink" width="26px" height="30px" xmlns="http://www.w3.org/2000/svg">
  <g transform="matrix(1 0 0 1 -1034 -149 )">
    <path d="M 25.416015625 17.685546875  C 25.5232204861111 17.8092447916667  25.5768229166667 17.9557291666667  25.5768229166667 18.125  C 25.5768229166667 18.1901041666667  25.5711805555556 18.2356770833333  25.5598958333333 18.26171875  C 24.8376736111111 21.7513020833333  23.3255208333333 24.580078125  21.0234375 26.748046875  C 18.7213541666667 28.916015625  16.0243055555556 30  12.9322916666667 30  C 11.2847222222222 30  9.69075520833333 29.6419270833333  8.150390625 28.92578125  C 6.61002604166667 28.2096354166667  5.23611111111111 27.1875  4.02864583333333 25.859375  L 1.84505208333333 28.37890625  C 1.63064236111111 28.6263020833333  1.37673611111111 28.75  1.08333333333333 28.75  C 0.789930555555556 28.75  0.536024305555556 28.6263020833333  0.321614583333333 28.37890625  C 0.107204861111111 28.1315104166667  0 27.8385416666667  0 27.5  L 0 18.75  C 0 18.4114583333333  0.107204861111111 18.1184895833333  0.321614583333333 17.87109375  C 0.536024305555556 17.6236979166667  0.789930555555556 17.5  1.08333333333333 17.5  L 8.66666666666667 17.5  C 8.96006944444444 17.5  9.21397569444444 17.6236979166667  9.42838541666667 17.87109375  C 9.64279513888889 18.1184895833333  9.75 18.4114583333333  9.75 18.75  C 9.75 19.0885416666667  9.64279513888889 19.3815104166667  9.42838541666667 19.62890625  L 7.109375 22.3046875  C 7.91059027777778 23.1640625  8.81901041666667 23.828125  9.83463541666667 24.296875  C 10.8502604166667 24.765625  11.9053819444444 25  13 25  C 14.5121527777778 25  15.9227430555556 24.5768229166667  17.2317708333333 23.73046875  C 18.5407986111111 22.8841145833333  19.5902777777778 21.71875  20.3802083333333 20.234375  C 20.5043402777778 20.0130208333333  20.8033854166667 19.2513020833333  21.27734375 17.94921875  C 21.3676215277778 17.6497395833333  21.5368923611111 17.5  21.78515625 17.5  L 25.03515625 17.5  C 25.1818576388889 17.5  25.3088107638889 17.5618489583333  25.416015625 17.685546875  Z M 25.6783854166667 1.62109375  C 25.8927951388889 1.86848958333333  26 2.16145833333333  26 2.5  L 26 11.25  C 26 11.5885416666667  25.8927951388889 11.8815104166667  25.6783854166667 12.12890625  C 25.4639756944444 12.3763020833333  25.2100694444444 12.5  24.9166666666667 12.5  L 17.3333333333333 12.5  C 17.0399305555556 12.5  16.7860243055556 12.3763020833333  16.5716145833333 12.12890625  C 16.3572048611111 11.8815104166667  16.25 11.5885416666667  16.25 11.25  C 16.25 10.9114583333333  16.3572048611111 10.6184895833333  16.5716145833333 10.37109375  L 18.9075520833333 7.67578125  C 17.2374131944444 5.89192708333333  15.2682291666667 5  13 5  C 11.4878472222222 5  10.0772569444444 5.42317708333333  8.76822916666667 6.26953125  C 7.45920138888889 7.11588541666666  6.40972222222222 8.28125  5.61979166666667 9.765625  C 5.49565972222222 9.98697916666666  5.19661458333333 10.7486979166667  4.72265625 12.05078125  C 4.63237847222222 12.3502604166667  4.46310763888889 12.5  4.21484375 12.5  L 0.846354166666667 12.5  C 0.699652777777778 12.5  0.572699652777778 12.4381510416667  0.465494791666667 12.314453125  C 0.358289930555556 12.1907552083333  0.3046875 12.0442708333333  0.3046875 11.875  L 0.3046875 11.73828125  C 1.03819444444444 8.24869791666667  2.56163194444444 5.419921875  4.875 3.251953125  C 7.18836805555556 1.083984375  9.89670138888889 0  13 0  C 14.6475694444444 0  16.25 0.361328125000001  17.8072916666667 1.083984375  C 19.3645833333333 1.806640625  20.7469618055556 2.82552083333333  21.9544270833333 4.140625  L 24.1549479166667 1.62109375  C 24.3693576388889 1.37369791666666  24.6232638888889 1.25  24.9166666666667 1.25  C 25.2100694444444 1.25  25.4639756944444 1.37369791666666  25.6783854166667 1.62109375  Z " fill-rule="nonzero" fill="#000000" stroke="none" transform="matrix(1 0 0 1 1034 149 )" />
  </g>
</svg>