<?xml version="1.0" encoding="utf-8"?>
<svg version="1.1" xmlns:xlink="http://www.w3.org/1999/xlink" width="25px" height="26px" xmlns="http://www.w3.org/2000/svg">
  <g transform="matrix(1 0 0 1 -1182 -305 )">
    <path d="M 18.8151041666667 0.986607142857144  L 23.8932291666667 5.51339285714286  C 24.1970486111111 5.78422619047619  24.4574652777778 6.15178571428572  24.6744791666667 6.61607142857143  C 24.8914930555556 7.08035714285714  25 7.50595238095238  25 7.89285714285714  L 25 24.6071428571429  C 25 24.9940476190476  24.8480902777778 25.3229166666667  24.5442708333333 25.59375  C 24.2404513888889 25.8645833333333  23.8715277777778 26  23.4375 26  L 1.5625 26  C 1.12847222222222 26  0.759548611111111 25.8645833333333  0.455729166666667 25.59375  C 0.151909722222222 25.3229166666667  0 24.9940476190476  0 24.6071428571429  L 0 1.39285714285714  C 0 1.00595238095238  0.151909722222222 0.677083333333332  0.455729166666667 0.40625  C 0.759548611111111 0.135416666666668  1.12847222222222 0  1.5625 0  L 16.1458333333333 0  C 16.5798611111111 0  17.0572916666667 0.0967261904761916  17.578125 0.290178571428572  C 18.0989583333333 0.483630952380952  18.5112847222222 0.715773809523808  18.8151041666667 0.986607142857144  Z M 17.333984375 2.29241071428572  C 17.2037760416667 2.17633928571428  16.9813368055556 2.06994047619047  16.6666666666667 1.97321428571428  L 16.6666666666667 7.42857142857143  L 22.7864583333333 7.42857142857143  C 22.6779513888889 7.14806547619047  22.55859375 6.94977678571428  22.4283854166667 6.83370535714286  L 17.333984375 2.29241071428572  Z M 2 24  L 23 24  L 23 9.28571428571428  L 16.1458333333333 9.28571428571428  C 15.7118055555556 9.28571428571428  15.3428819444444 9.15029761904762  15.0390625 8.87946428571428  C 14.7352430555556 8.60863095238095  14.5833333333333 8.2797619047619  14.5833333333333 7.89285714285714  L 14.5833333333333 2  L 2 2  L 2 24  Z M 6.25 12.5357142857143  L 6.25 11.6071428571429  C 6.25 11.4717261904762  6.298828125 11.3604910714286  6.396484375 11.2734375  C 6.494140625 11.1863839285714  6.61892361111111 11.1428571428571  6.77083333333333 11.1428571428571  L 18.2291666666667 11.1428571428571  C 18.3810763888889 11.1428571428571  18.505859375 11.1863839285714  18.603515625 11.2734375  C 18.701171875 11.3604910714286  18.75 11.4717261904762  18.75 11.6071428571429  L 18.75 12.5357142857143  C 18.75 12.671130952381  18.701171875 12.7823660714286  18.603515625 12.8694196428571  C 18.505859375 12.9564732142857  18.3810763888889 13  18.2291666666667 13  L 6.77083333333333 13  C 6.61892361111111 13  6.494140625 12.9564732142857  6.396484375 12.8694196428571  C 6.298828125 12.7823660714286  6.25 12.671130952381  6.25 12.5357142857143  Z M 6.77083333333333 14.8571428571429  L 18.2291666666667 14.8571428571429  C 18.3810763888889 14.8571428571429  18.505859375 14.9006696428571  18.603515625 14.9877232142857  C 18.701171875 15.0747767857143  18.75 15.1860119047619  18.75 15.3214285714286  L 18.75 16.25  C 18.75 16.3854166666667  18.701171875 16.4966517857143  18.603515625 16.5837053571429  C 18.505859375 16.6707589285714  18.3810763888889 16.7142857142857  18.2291666666667 16.7142857142857  L 6.77083333333333 16.7142857142857  C 6.61892361111111 16.7142857142857  6.494140625 16.6707589285714  6.396484375 16.5837053571429  C 6.298828125 16.4966517857143  6.25 16.3854166666667  6.25 16.25  L 6.25 15.3214285714286  C 6.25 15.1860119047619  6.298828125 15.0747767857143  6.396484375 14.9877232142857  C 6.494140625 14.9006696428571  6.61892361111111 14.8571428571429  6.77083333333333 14.8571428571429  Z M 6.77083333333333 18.5714285714286  L 18.2291666666667 18.5714285714286  C 18.3810763888889 18.5714285714286  18.505859375 18.6149553571429  18.603515625 18.7020089285714  C 18.701171875 18.7890625  18.75 18.9002976190476  18.75 19.0357142857143  L 18.75 19.9642857142857  C 18.75 20.0997023809524  18.701171875 20.2109375  18.603515625 20.2979910714286  C 18.505859375 20.3850446428571  18.3810763888889 20.4285714285714  18.2291666666667 20  L 6.77083333333333 20  C 6.61892361111111 20.4285714285714  6.494140625 20.3850446428571  6.396484375 20.2979910714286  C 6.298828125 20.2109375  6.25 20.0997023809524  6.25 19.9642857142857  L 6.25 19.0357142857143  C 6.25 18.9002976190476  6.298828125 18.7890625  6.396484375 18.7020089285714  C 6.494140625 18.6149553571429  6.61892361111111 18.5714285714286  6.77083333333333 18.5714285714286  Z " fill-rule="nonzero" fill="#000000" stroke="none" transform="matrix(1 0 0 1 1182 305 )" />
  </g>
</svg>