<?xml version="1.0" encoding="utf-8"?>
<svg version="1.1" xmlns:xlink="http://www.w3.org/1999/xlink" width="30px" height="29px" xmlns="http://www.w3.org/2000/svg">
  <g transform="matrix(1 0 0 1 -1310 -302 )">
    <path d="M 10.7173295454545 11.044921875  C 10.8451704545455 11.158203125  10.9090909090909 11.3029513888889  11 11.4791666666667  L 11 22.3541666666667  C 10.9090909090909 22.5303819444444  10.8451704545455 22.6751302083333  10.7173295454545 22.7884114583333  C 10.5894886363636 22.9016927083333  10.4261363636364 22.9583333333333  10.2272727272727 22.9583333333333  L 8.86363636363636 22.9583333333333  C 8.66477272727273 22.9583333333333  8.50142045454546 22.9016927083333  8.37357954545455 22.7884114583333  C 8.24573863636364 22.6751302083333  8.18181818181818 22.5303819444444  8.18181818181818 22.3541666666667  L 8.18181818181818 11.4791666666667  C 8.18181818181818 11.3029513888889  8.24573863636364 11.158203125  8.37357954545455 11.044921875  C 8.50142045454546 10.931640625  8.66477272727273 10.875  8.86363636363636 10.875  L 10.2272727272727 10.875  C 10.4261363636364 10.875  10.5894886363636 10.931640625  10.7173295454545 11.044921875  Z M 16.171875 11.044921875  C 16.2997159090909 11.158203125  16.3636363636364 11.3029513888889  16 11.4791666666667  L 16 22.3541666666667  C 16.3636363636364 22.5303819444444  16.2997159090909 22.6751302083333  16.171875 22.7884114583333  C 16.0440340909091 22.9016927083333  15.8806818181818 22.9583333333333  15.6818181818182 22.9583333333333  L 14.3181818181818 22.9583333333333  C 14.1193181818182 22.9583333333333  13.9559659090909 22.9016927083333  13.828125 22.7884114583333  C 13.7002840909091 22.6751302083333  13.6363636363636 22.5303819444444  14 22.3541666666667  L 14 11.4791666666667  C 13.6363636363636 11.3029513888889  13.7002840909091 11.158203125  13.828125 11.044921875  C 13.9559659090909 10.931640625  14.1193181818182 10.875  14.3181818181818 10.875  L 15.6818181818182 10.875  C 15.8806818181818 10.875  16.0440340909091 10.931640625  16.171875 11.044921875  Z M 21.6264204545455 11.044921875  C 21.7542613636364 11.158203125  21.8181818181818 11.3029513888889  21.8181818181818 11.4791666666667  L 21.8181818181818 22.3541666666667  C 21.8181818181818 22.5303819444444  21.7542613636364 22.6751302083333  21.6264204545455 22.7884114583333  C 21.4985795454545 22.9016927083333  21.3352272727273 22.9583333333333  21.1363636363636 22.9583333333333  L 19.7727272727273 22.9583333333333  C 19.5738636363636 22.9583333333333  19.4105113636364 22.9016927083333  19.2826704545455 22.7884114583333  C 19.1548295454545 22.6751302083333  19.0909090909091 22.5303819444444  19 22.3541666666667  L 19 11.4791666666667  C 19.0909090909091 11.3029513888889  19.1548295454545 11.158203125  19.2826704545455 11.044921875  C 19.4105113636364 10.931640625  19.5738636363636 10.875  19.7727272727273 10.875  L 21.1363636363636 10.875  C 21.3352272727273 10.875  21.4985795454545 10.931640625  21.6264204545455 11.044921875  Z M 24.3963068181818 25.9130859375  C 24.4957386363636 25.6802300347222  24.5454545454545 25.4253472222222  24 25.1484375  L 24 7.25  L 6 7.25  L 6 25.1484375  C 5.45454545454546 25.4253472222222  5.50426136363636 25.6802300347222  5.60369318181818 25.9130859375  C 5.703125 26.1459418402778  5.80610795454546 26.3158637152778  5.91264204545455 26.4228515625  C 6.01917613636364 26.5298394097222  6.09375 26.5833333333333  6.13636363636364 26.5833333333333  L 23.8636363636364 26.5833333333333  C 23.90625 26.5833333333333  23.9808238636364 26.5298394097222  24.0873579545455 26.4228515625  C 24.1938920454545 26.3158637152778  24.296875 26.1459418402778  24.3963068181818 25.9130859375  Z M 11.2713068181818 2.62434895833333  L 10.2272727272727 4.83333333333333  L 19.7727272727273 4.83333333333333  L 18.75 2.62434895833333  C 18.6505681818182 2.51106770833333  18.5298295454545 2.44184027777778  18.3877840909091 2.41666666666667  L 11.6335227272727 2.41666666666667  C 11.4914772727273 2.44184027777778  11.3707386363636 2.51106770833333  11.2713068181818 2.62434895833333  Z M 29.8082386363636 5.00325520833333  C 29.9360795454545 5.11653645833333  30 5.26128472222222  30 5.4375  L 30 6.64583333333333  C 30 6.82204861111111  29.9360795454545 6.966796875  29.8082386363636 7.080078125  C 29.6803977272727 7.193359375  29.5170454545455 7.25  29.3181818181818 7.25  L 27 7.25  L 27 25.1484375  C 27.2727272727273 26.1931423611111  26.9389204545455 27.0962456597222  26.2713068181818 27.8577473958333  C 25.6036931818182 28.6192491319444  24.8011363636364 29  23.8636363636364 29  L 6.13636363636364 29  C 5.19886363636364 29  4.39630681818182 28.6318359375  3.72869318181818 27.8955078125  C 3.06107954545455 27.1591796875  2.72727272727273 26.2686631944444  3 25.2239583333333  L 3 7.25  L 0.681818181818182 7.25  C 0.482954545454545 7.25  0.319602272727273 7.193359375  0.191761363636364 7.080078125  C 0.0639204545454545 6.966796875  0 6.82204861111111  0 6.64583333333333  L 0 5.4375  C 0 5.26128472222222  0.0639204545454545 5.11653645833333  0.191761363636364 5.00325520833333  C 0.319602272727273 4.88997395833333  0.482954545454545 4.83333333333333  0.681818181818182 4.83333333333333  L 7.265625 4.83333333333333  L 8.75710227272727 1.68033854166667  C 8.97017045454546 1.21462673611111  9.35369318181818 0.818142361111109  9.90767045454546 0.490885416666668  C 10.4616477272727 0.16362847222222  11.0227272727273 0  11.5909090909091 0  L 18.4090909090909 0  C 18.9772727272727 0  19.5383522727273 0.16362847222222  20.0923295454545 0.490885416666668  C 20.6463068181818 0.818142361111109  21.0298295454545 1.21462673611111  21.2428977272727 1.68033854166667  L 22.734375 4.83333333333333  L 29.3181818181818 4.83333333333333  C 29.5170454545455 4.83333333333333  29.6803977272727 4.88997395833333  29.8082386363636 5.00325520833333  Z " fill-rule="nonzero" fill="#000000" stroke="none" transform="matrix(1 0 0 1 1310 302 )" />
  </g>
</svg>