<?xml version="1.0" encoding="utf-8"?>
<svg version="1.1" xmlns:xlink="http://www.w3.org/1999/xlink" width="21px" height="29px" xmlns="http://www.w3.org/2000/svg">
  <g transform="matrix(1 0 0 1 -1269 -302 )">
    <path d="M 14.32470703125 6.75911458333333  C 14.83740234375 7.23741319444444  15.09375 7.80381944444444  15.09375 8.45833333333333  C 15.09375 8.62196180555555  15.02880859375 8.76356336805555  14.89892578125 8.88313802083333  C 14.76904296875 9.00271267361111  14.615234375 9.0625  14.4375 9.0625  C 14.259765625 9.0625  14.10595703125 9.00271267361111  13.97607421875 8.88313802083333  C 13.84619140625 8.76356336805555  13.78125 8.62196180555555  13.78125 8.45833333333333  C 13.78125 7.87934027777778  13.412109375 7.43250868055555  12.673828125 7.11783854166667  C 11.935546875 6.80316840277778  11.2109375 6.64583333333333  10.5 6.64583333333333  C 10.322265625 6.64583333333333  10.16845703125 6.58604600694444  10.03857421875 6.46647135416667  C 9.90869140625 6.34689670138888  9.84375 6.20529513888888  9.84375 6.04166666666667  C 9.84375 5.87803819444444  9.90869140625 5.73643663194444  10.03857421875 5.61686197916667  C 10.16845703125 5.49728732638888  10.322265625 5.4375  10.5 5.4375  C 11.18359375 5.4375  11.86376953125 5.53819444444444  12.54052734375 5.73958333333333  C 13.21728515625 5.94097222222222  13.81201171875 6.28081597222222  14.32470703125 6.75911458333333  Z M 16.98046875 11.8567708333333  C 17.91015625 10.8624131944444  18.375 9.72960069444444  18.375 8.45833333333333  C 18.375 7.55208333333333  18.13916015625 6.70876736111111  17.66748046875 5.92838541666667  C 17.19580078125 5.14800347222222  16.58056640625 4.50922309027778  15.82177734375 4.01204427083333  C 15.06298828125 3.51486545138888  14.22216796875 3.12467447916667  13.29931640625 2.84147135416667  C 12.37646484375 2.55826822916667  11.443359375 2.41666666666667  10.5 2.41666666666667  C 9.556640625 2.41666666666667  8.62353515625 2.55826822916667  7.70068359375 2.84147135416667  C 6.77783203125 3.12467447916667  5.93701171875 3.51486545138888  5.17822265625 4.01204427083333  C 4.41943359375 4.50922309027778  3.80419921875 5.14800347222222  3.33251953125 5.92838541666667  C 2.86083984375 6.70876736111111  2.625 7.55208333333333  2.625 8.45833333333333  C 2.625 9.72960069444444  3.08984375 10.8624131944444  4.01953125 11.8567708333333  C 4.15625 11.9952256944444  4.36474609375 12.2029079861111  4.64501953125 12.4798177083333  C 4.92529296875 12.7567274305556  5.1337890625 12.9644097222222  5.2705078125 13.1028645833333  C 7.0205078125 15.0286458333333  7.984375 16.9040798611111  8.162109375 18.7291666666667  L 12.837890625 18.7291666666667  C 13.015625 16.9040798611111  13.9794921875 15.0286458333333  15.7294921875 13.1028645833333  C 15.8662109375 12.9644097222222  16.07470703125 12.7567274305556  16.35498046875 12.4798177083333  C 16.63525390625 12.2029079861111  16.84375 11.9952256944444  16.98046875 11.8567708333333  Z M 20.08740234375 4.97493489583333  C 20.69580078125 6.05110677083333  21 7.21223958333333  21 8.45833333333333  C 21 10.4092881944444  20.2958984375 12.0959201388889  18.8876953125 13.5182291666667  C 18.2724609375 14.1349826388889  17.76318359375 14.6825086805556  17.35986328125 15.1608072916667  C 16.95654296875 15.6391059027778  16.5498046875 16.2401258680556  16.1396484375 16.9638671875  C 15.7294921875 17.6876085069444  15.4970703125 18.3641493055556  15.4423828125 18.9934895833333  C 16.0849609375 19.3459201388889  16.40625 19.8619791666667  16.40625 20.5416666666667  C 16.40625 21.0073784722222  16.2353515625 21.41015625  15.8935546875 21.75  C 16.2353515625 22.08984375  16.40625 22.4926215277778  16.40625 22.9583333333333  C 16.40625 23.6128472222222  16.0986328125 24.1226128472222  15.4833984375 24.4876302083333  C 15.6611328125 24.7771267361111  15.75 25.0729166666667  15.75 25.375  C 15.75 25.9539930555556  15.53466796875 26.4008246527778  15.10400390625 26.7154947916667  C 14.67333984375 27.0301649305556  14.1435546875 27.1875  13.5146484375 27.1875  C 13.2412109375 27.7413194444444  12.8310546875 28.1818576388889  12.2841796875 28.5091145833333  C 11.7373046875 28.8363715277778  11.142578125 29  10.5 29  C 9.857421875 29  9.2626953125 28.8363715277778  8.7158203125 28.5091145833333  C 8.1689453125 28.1818576388889  7.7587890625 27.7413194444444  7.4853515625 27.1875  C 6.8564453125 27.1875  6.32666015625 27.0301649305556  5.89599609375 26.7154947916667  C 5.46533203125 26.4008246527778  5.25 25.9539930555556  5.25 25.375  C 5.25 25.0729166666667  5.3388671875 24.7771267361111  5.5166015625 24.4876302083333  C 4.9013671875 24.1226128472222  4.59375 23.6128472222222  4.59375 22.9583333333333  C 4.59375 22.4926215277778  4.7646484375 22.08984375  5.1064453125 21.75  C 4.7646484375 21.41015625  4.59375 21.0073784722222  4.59375 20.5416666666667  C 4.59375 19.8619791666667  4.9150390625 19.3459201388889  5.5576171875 18.9934895833333  C 5.5029296875 18.3641493055556  5.2705078125 17.6876085069444  4.8603515625 16.9638671875  C 4.4501953125 16.2401258680556  4.04345703125 15.6391059027778  3.64013671875 15.1608072916667  C 3.23681640625 14.6825086805556  2.7275390625 14.1349826388889  2.1123046875 13.5182291666667  C 0.7041015625 12.0959201388889  0 10.4092881944444  0 8.45833333333333  C 0 7.21223958333333  0.30419921875 6.05110677083333  0.91259765625 4.97493489583333  C 1.52099609375 3.89876302083333  2.32080078125 3.00509982638888  3.31201171875 2.2939453125  C 4.30322265625 1.58279079861111  5.42431640625 1.02267795138888  6.67529296875 0.613606770833332  C 7.92626953125 0.204535590277776  9.201171875 0  10.5 0  C 11.798828125 0  13.07373046875 0.204535590277776  14.32470703125 0.613606770833332  C 15.57568359375 1.02267795138888  16.69677734375 1.58279079861111  17.68798828125 2.2939453125  C 18.67919921875 3.00509982638888  19.47900390625 3.89876302083333  20.08740234375 4.97493489583333  Z " fill-rule="nonzero" fill="#000000" stroke="none" transform="matrix(1 0 0 1 1269 302 )" />
  </g>
</svg>