<?xml version="1.0" encoding="utf-8"?>
<svg version="1.1" xmlns:xlink="http://www.w3.org/1999/xlink" width="226px" height="59px" xmlns="http://www.w3.org/2000/svg">
  <g transform="matrix(1 0 0 1 -175 -337 )">
    <path d="M 176.399581589958 390.333362199253  C 176.399581589958 390.333362199253  176.399581589958 351.448617631716  176.399581589958 351.448617631716  C 176.399581589958 349.971710592233  177.124293393318 348.588818087065  178.338729504127 347.748342426479  C 178.338729504127 347.748342426479  186.35626832307 337.731840780931  186.35626832307 337.731840780931  C 186.35626832307 337.731840780931  197.142605472537 346.948617631716  197.142605472537 346.948617631716  C 197.142605472537 346.948617631716  396 346.948617631716  396 346.948617631716  C 398.485281374238 346.948617631716  400.5 348.963336257478  400.5 351.448617631716  C 400.5 351.448617631716  400.5 390.333362199253  400.5 390.333362199253  C 400.5 392.818643573492  398.485281374238 394.833362199253  396 394.833362199253  C 396 394.833362199253  180.899581589958 394.833362199253  180.899581589958 394.833362199253  C 178.41430021572 394.833362199253  176.399581589958 392.818643573492  176.399581589958 390.333362199253  Z " fill-rule="nonzero" fill="#ffffff" stroke="none" />
    <path d="M 175.899581589958 390.333362199253  C 175.899581589958 390.333362199253  175.899581589958 351.448617631716  175.899581589958 351.448617631716  C 175.899581589958 349.834100716694  176.67918090763 348.318939860843  177.992840448242 347.380343312664  C 177.992840448242 347.380343312664  186.28855721393 337.016307352128  186.28855721393 337.016307352128  C 186.28855721393 337.016307352128  197.327131806885 346.448617631716  197.327131806885 346.448617631716  C 197.327131806885 346.448617631716  396 346.448617631716  396 346.448617631716  C 398.761423749154 346.448617631716  401 348.687193882562  401 351.448617631716  C 401 351.448617631716  401 390.333362199253  401 390.333362199253  C 401 393.094785948407  398.761423749154 395.333362199253  396 395.333362199253  C 396 395.333362199253  180.899581589958 395.333362199253  180.899581589958 395.333362199253  C 178.138157840804 395.333362199253  175.899581589958 393.094785948407  175.899581589958 390.333362199253  Z M 176.899581589958 390.333362199253  C 176.899581589958 392.542501198576  178.690442590635 394.333362199253  180.899581589958 394.333362199253  C 180.899581589958 394.333362199253  396 394.333362199253  396 394.333362199253  C 398.209138999323 394.333362199253  400 392.542501198576  400 390.333362199253  C 400 390.333362199253  400 351.448617631716  400 351.448617631716  C 400 349.239478632393  398.209138999323 347.448617631716  396 347.448617631716  C 396 347.448617631716  196.958079138188 347.448617631716  196.958079138188 347.448617631716  C 196.958079138188 347.448617631716  186.42397943221 338.447374209733  186.42397943221 338.447374209733  C 186.42397943221 338.447374209733  178.682015414009 348.119593712414  178.682015414009 348.119593712414  C 177.568508174763 348.861335451219  176.899581589958 350.110679225459  176.899581589958 351.448617631716  C 176.899581589958 351.448617631716  176.899581589958 390.333362199253  176.899581589958 390.333362199253  Z " fill-rule="nonzero" fill="#d7d7d7" stroke="none" />
  </g>
</svg>