<?xml version="1.0" encoding="utf-8"?>
<svg version="1.1" xmlns:xlink="http://www.w3.org/1999/xlink" width="227px" height="70px" xmlns="http://www.w3.org/2000/svg">
  <g transform="matrix(1 0 0 1 -458 -172 )">
    <path d="M 458.5 227.288954901431  C 458.5 227.288954901431  458.5 177  458.5 177  C 458.5 174.514718625761  460.514718625761 172.5  463 172.5  C 463 172.5  680 172.5  680 172.5  C 682.485281374239 172.5  684.5 174.514718625761  684.5 177  C 684.5 177  684.5 227.288954901431  684.5 227.288954901431  C 684.5 229.77423627567  682.485281374239 231.788954901431  680 231.788954901431  C 680 231.788954901431  497.24245867133 231.788954901431  497.24245867133 231.788954901431  C 497.24245867133 231.788954901431  474.330750933574 240.401837459266  474.330750933574 240.401837459266  C 474.330750933574 240.401837459266  472.826016720315 231.788954901431  472.826016720315 231.788954901431  C 472.826016720315 231.788954901431  463 231.788954901431  463 231.788954901431  C 460.514718625761 231.788954901431  458.5 229.77423627567  458.5 227.288954901431  Z " fill-rule="nonzero" fill="#ffffff" stroke="none" />
    <path d="M 458 227.288954901431  C 458 227.288954901431  458 177  458 177  C 458 174.238576250846  460.238576250846 172  463 172  C 463 172  680 172  680 172  C 682.761423749154 172  685 174.238576250846  685 177  C 685 177  685 227.288954901431  685 227.288954901431  C 685 230.050378650585  682.761423749154 232.288954901431  680 232.288954901431  C 680 232.288954901431  497.333333333333 232.288954901431  497.333333333333 232.288954901431  C 497.333333333333 232.288954901431  473.942028985507 241.082125603866  473.942028985507 241.082125603866  C 473.942028985507 241.082125603866  472.405797101451 232.288954901431  472.405797101451 232.288954901431  C 472.405797101451 232.288954901431  463 232.288954901431  463 232.288954901431  C 460.238576250846 232.288954901431  458 230.050378650585  458 227.288954901431  Z M 459 227.288954901431  C 459 229.498093900754  460.790861000677 231.288954901431  463 231.288954901431  C 463 231.288954901431  473.24623633918 231.288954901431  473.24623633918 231.288954901431  C 473.24623633918 231.288954901431  474.719472881641 239.721549314665  474.719472881641 239.721549314665  C 474.719472881641 239.721549314665  497.151584009326 231.288954901431  497.151584009326 231.288954901431  C 497.151584009326 231.288954901431  680 231.288954901431  680 231.288954901431  C 682.209138999323 231.288954901431  684 229.498093900754  684 227.288954901431  C 684 227.288954901431  684 177  684 177  C 684 174.790861000677  682.209138999323 173  680 173  C 680 173  463 173  463 173  C 460.790861000677 173  459 174.790861000677  459 177  C 459 177  459 227.288954901431  459 227.288954901431  Z " fill-rule="nonzero" fill="#d7d7d7" stroke="none" />
  </g>
</svg>