<?xml version="1.0" encoding="utf-8"?>
<svg version="1.1" xmlns:xlink="http://www.w3.org/1999/xlink" width="30px" height="31px" xmlns="http://www.w3.org/2000/svg">
  <g transform="matrix(1 0 0 1 -311 -76 )">
    <path d="M 2.30769230769232 23.8035714285714  L 2.30769230769232 28.7857142857143  L 7.5 28.7857142857143  L 7.5 23.8035714285714  L 2.30769230769232 23.8035714285714  Z M 8.65384615384613 23.8035714285714  L 8.65384615384613 28.7857142857143  L 14.4230769230769 28.7857142857143  L 14.4230769230769 23.8035714285714  L 8.65384615384613 23.8035714285714  Z M 2.30769230769232 17.1607142857143  L 2.30769230769232 22.6964285714286  L 7.5 22.6964285714286  L 7.5 17.1607142857143  L 2.30769230769232 17.1607142857143  Z M 8.65384615384613 17.1607142857143  L 8.65384615384613 22.6964285714286  L 14.4230769230769 22.6964285714286  L 14.4230769230769 17.1607142857143  L 8.65384615384613 17.1607142857143  Z M 2.30769230769232 11.0714285714286  L 2.30769230769232 16.0535714285714  L 7.5 16.0535714285714  L 7.5 11.0714285714286  L 2.30769230769232 11.0714285714286  Z M 15.5769230769231 23.8035714285714  L 15.5769230769231 28.7857142857143  L 21.3461538461539 28.7857142857143  L 21.3461538461539 23.8035714285714  L 15.5769230769231 23.8035714285714  Z M 8.65384615384613 11.0714285714286  L 8.65384615384613 16.0535714285714  L 14.4230769230769 16.0535714285714  L 14.4230769230769 11.0714285714286  L 8.65384615384613 11.0714285714286  Z M 22.5 23.8035714285714  L 22.5 28.7857142857143  L 27.6923076923077 28.7857142857143  L 27.6923076923077 23.8035714285714  L 22.5 23.8035714285714  Z M 15.5769230769231 17.1607142857143  L 15.5769230769231 22.6964285714286  L 21.3461538461539 22.6964285714286  L 21.3461538461539 17.1607142857143  L 15.5769230769231 17.1607142857143  Z M 9.05949519230768 8.13922991071429  C 9.17367788461536 8.02966889880952  9.23076923076923 7.89992559523809  9.23076923076923 7.75  L 9.23076923076923 2.76785714285714  C 9.23076923076923 2.61793154761905  9.17367788461536 2.48818824404762  9.05949519230768 2.37862723214286  C 8.9453125 2.26906622023809  8.81009615384613 2.21428571428571  8.65384615384613 2.21428571428571  L 7.5 2.21428571428571  C 7.34375 2.21428571428571  7.20853365384613 2.26906622023809  7.09435096153845 2.37862723214286  C 6.98016826923077 2.48818824404762  6.92307692307691 2.61793154761905  6.92307692307691 2.76785714285714  L 6.92307692307691 7.75  C 6.92307692307691 7.89992559523809  6.98016826923077 8.02966889880952  7.09435096153845 8.13922991071429  C 7.20853365384613 8.24879092261905  7.34375 8.30357142857143  7.5 8.30357142857143  L 8.65384615384613 8.30357142857143  C 8.81009615384613 8.30357142857143  8.9453125 8.24879092261905  9.05949519230768 8.13922991071429  Z M 22.5 17.1607142857143  L 22.5 22.6964285714286  L 27.6923076923077 22.6964285714286  L 27.6923076923077 17.1607142857143  L 22.5 17.1607142857143  Z M 15.5769230769231 11.0714285714286  L 15.5769230769231 16.0535714285714  L 21.3461538461539 16.0535714285714  L 21.3461538461539 11.0714285714286  L 15.5769230769231 11.0714285714286  Z M 22.5 11.0714285714286  C 22.5 11.0714285714286  22.1503267973825 15.7124183006505  22.5 16.0535714285714  C 22.8496732026175 16.3947245564923  27.6923076923077 16.0535714285714  27.6923076923077 16.0535714285714  L 27.6923076923077 11.0714285714286  L 22.5 11.0714285714286  Z M 22.9056490384615 8.13922991071429  C 23.0198317307692 8.02966889880952  23.0769230769231 7.89992559523809  23.0769230769231 7.75  L 23.0769230769231 2.76785714285714  C 23.0769230769231 2.61793154761905  23.0198317307692 2.48818824404762  22.9056490384615 2.37862723214286  C 22.7914663461539 2.26906622023809  22.65625 2.21428571428571  22.5 2.21428571428571  L 21.3461538461539 2.21428571428571  C 21.1899038461539 2.21428571428571  21.0546875 2.26906622023809  20.9405048076923 2.37862723214286  C 20.8263221153846 2.48818824404762  20.7692307692308 2.61793154761905  20.7692307692308 2.76785714285714  L 20.7692307692308 7.75  C 20.7692307692308 7.89992559523809  20.8263221153846 8.02966889880952  20.9405048076923 8.13922991071429  C 21.0546875 8.24879092261905  21.1899038461539 8.30357142857143  21.3461538461539 8.30357142857143  L 22.5 8.30357142857143  C 22.65625 8.30357142857143  22.7914663461539 8.24879092261905  22.9056490384615 8.13922991071429  Z M 29.3149038461539 5.0859375  C 29.7716346153846 5.52418154761905  30 6.04315476190476  30 6.64285714285714  L 30 28.7857142857143  C 30 29.3854166666667  29.7716346153846 29.9043898809524  29.3149038461539 30.3426339285714  C 28.8581730769231 30.7808779761905  28.3173076923077 31  27.6923076923077 31  L 2.30769230769232 31  C 1.68269230769232 31  1.14182692307691 30.7808779761905  0.685096153846132 30.3426339285714  C 0.228365384615358 29.9043898809524  0 29.3854166666667  0 28.7857142857143  L 0 6.64285714285714  C 0 6.04315476190476  0.228365384615358 5.52418154761905  0.685096153846132 5.0859375  C 1.14182692307691 4.64769345238095  1.68269230769232 4.42857142857143  2.30769230769232 4.42857142857143  L 4.61538461538464 4.42857142857143  L 4.61538461538464 2.76785714285714  C 4.61538461538464 2.00669642857143  4.89783653846155 1.35509672619048  5.46274038461536 0.813058035714292  C 6.02764423076923 0.271019345238102  6.70673076923077 0  7.5 0  L 8.65384615384613 0  C 9.44711538461536 0  10.1262019230769 0.271019345238102  10.6911057692308 0.813058035714292  C 11.2560096153846 1.35509672619048  11.5384615384615 2.00669642857143  11.5384615384615 2.76785714285714  L 11.5384615384615 4.42857142857143  L 18.4615384615385 4.42857142857143  L 18.4615384615385 2.76785714285714  C 18.4615384615385 2.00669642857143  18.7439903846154 1.35509672619048  19.3088942307692 0.813058035714292  C 19.8737980769231 0.271019345238102  20.5528846153846 0  21.3461538461539 0  L 22.5 0  C 23.2932692307692 0  23.9723557692308 0.271019345238102  24.5372596153846 0.813058035714292  C 25.1021634615385 1.35509672619048  25.3846153846154 2.00669642857143  25.3846153846154 2.76785714285714  L 25.3846153846154 4.42857142857143  L 27.6923076923077 4.42857142857143  C 28.3173076923077 4.42857142857143  28.8581730769231 4.64769345238095  29.3149038461539 5.0859375  Z " fill-rule="nonzero" fill="#000000" stroke="none" transform="matrix(1 0 0 1 311 76 )" />
  </g>
</svg>