<?xml version="1.0" encoding="utf-8"?>
<svg version="1.1" xmlns:xlink="http://www.w3.org/1999/xlink" width="53px" height="49px" xmlns="http://www.w3.org/2000/svg">
  <g transform="matrix(1 0 0 1 -707 -179 )">
    <path d="M 733.5 179  C 748.34 179  760 189.78  760 203.5  C 760 217.22  748.34 228  733.5 228  C 718.66 228  707 217.22  707 203.5  C 707 189.78  718.66 179  733.5 179  Z " fill-rule="nonzero" fill="#ffffff" stroke="none" />
    <path d="M 733.5 179.5  C 748.06 179.5  759.5 190.06  759.5 203.5  C 759.5 216.94  748.06 227.5  733.5 227.5  C 718.94 227.5  707.5 216.94  707.5 203.5  C 707.5 190.06  718.94 179.5  733.5 179.5  Z " stroke-width="1" stroke="#797979" fill="none" />
  </g>
</svg>