<?xml version="1.0" encoding="utf-8"?>
<svg version="1.1" xmlns:xlink="http://www.w3.org/1999/xlink" width="78px" height="70px" xmlns="http://www.w3.org/2000/svg">
  <g transform="matrix(1 0 0 1 -568 -109 )">
    <path d="M 607 109  C 628.84 109  646 124.4  646 144  C 646 163.6  628.84 179  607 179  C 585.16 179  568 163.6  568 144  C 568 124.4  585.16 109  607 109  Z " fill-rule="nonzero" fill="#ffffff" stroke="none" />
    <path d="M 607 109.5  C 628.56 109.5  645.5 124.68  645.5 144  C 645.5 163.32  628.56 178.5  607 178.5  C 585.44 178.5  568.5 163.32  568.5 144  C 568.5 124.68  585.44 109.5  607 109.5  Z " stroke-width="1" stroke="#797979" fill="none" />
  </g>
</svg>