<?xml version="1.0" encoding="utf-8"?>
<svg version="1.1" xmlns:xlink="http://www.w3.org/1999/xlink" width="12px" height="12px" viewBox="318 634.5  12 12" xmlns="http://www.w3.org/2000/svg">
  <path d="M 324 634.5  C 327.36 634.5  330 637.14  330 640.5  C 330 643.86  327.36 646.5  324 646.5  C 320.64 646.5  318 643.86  318 640.5  C 318 637.14  320.64 634.5  324 634.5  Z " fill-rule="nonzero" fill="#f0f0f0" stroke="none" />
  <path d="M 324 635  C 327.08 635  329.5 637.42  329.5 640.5  C 329.5 643.58  327.08 646  324 646  C 320.92 646  318.5 643.58  318.5 640.5  C 318.5 637.42  320.92 635  324 635  Z " stroke-width="1" stroke="#797979" fill="none" />
  <path d="M 324 643.5  C 322.32 643.5  321 642.18  321 640.5  C 321 638.82  322.32 637.5  324 637.5  C 325.68 637.5  327 638.82  327 640.5  C 327 642.18  325.68 643.5  324 643.5  " fill-rule="nonzero" fill="#797979" stroke="none" />
</svg>