<?xml version="1.0" encoding="utf-8"?>
<svg version="1.1" xmlns:xlink="http://www.w3.org/1999/xlink" width="12px" height="12px" viewBox="410 634.5  12 12" xmlns="http://www.w3.org/2000/svg">
  <path d="M 416 634.5  C 419.36 634.5  422 637.14  422 640.5  C 422 643.86  419.36 646.5  416 646.5  C 412.64 646.5  410 643.86  410 640.5  C 410 637.14  412.64 634.5  416 634.5  Z " fill-rule="nonzero" fill="#ffffff" stroke="none" />
  <path d="M 416 635  C 419.08 635  421.5 637.42  421.5 640.5  C 421.5 643.58  419.08 646  416 646  C 412.92 646  410.5 643.58  410.5 640.5  C 410.5 637.42  412.92 635  416 635  Z " stroke-width="1" stroke="#797979" fill="none" />
  <path d="M 416 643.5  C 414.32 643.5  413 642.18  413 640.5  C 413 638.82  414.32 637.5  416 637.5  C 417.68 637.5  419 638.82  419 640.5  C 419 642.18  417.68 643.5  416 643.5  " fill-rule="nonzero" fill="#797979" stroke="none" />
</svg>