<?xml version="1.0" encoding="utf-8"?>
<svg version="1.1" xmlns:xlink="http://www.w3.org/1999/xlink" width="12px" height="12px" viewBox="384 770.5  12 12" xmlns="http://www.w3.org/2000/svg">
  <path d="M 390 770.5  C 393.36 770.5  396 773.14  396 776.5  C 396 779.86  393.36 782.5  390 782.5  C 386.64 782.5  384 779.86  384 776.5  C 384 773.14  386.64 770.5  390 770.5  Z " fill-rule="nonzero" fill="#f0f0f0" stroke="none" />
  <path d="M 390 771  C 393.08 771  395.5 773.42  395.5 776.5  C 395.5 779.58  393.08 782  390 782  C 386.92 782  384.5 779.58  384.5 776.5  C 384.5 773.42  386.92 771  390 771  Z " stroke-width="1" stroke="#797979" fill="none" />
  <path d="M 390 779.5  C 388.32 779.5  387 778.18  387 776.5  C 387 774.82  388.32 773.5  390 773.5  C 391.68 773.5  393 774.82  393 776.5  C 393 778.18  391.68 779.5  390 779.5  " fill-rule="nonzero" fill="#797979" stroke="none" />
</svg>