<?xml version="1.0" encoding="utf-8"?>
<svg version="1.1" xmlns:xlink="http://www.w3.org/1999/xlink" width="12px" height="12px" viewBox="480 661.5  12 12" xmlns="http://www.w3.org/2000/svg">
  <path d="M 486 661.5  C 489.36 661.5  492 664.14  492 667.5  C 492 670.86  489.36 673.5  486 673.5  C 482.64 673.5  480 670.86  480 667.5  C 480 664.14  482.64 661.5  486 661.5  Z " fill-rule="nonzero" fill="#ffffff" stroke="none" />
  <path d="M 486 662  C 489.08 662  491.5 664.42  491.5 667.5  C 491.5 670.58  489.08 673  486 673  C 482.92 673  480.5 670.58  480.5 667.5  C 480.5 664.42  482.92 662  486 662  Z " stroke-width="1" stroke="#797979" fill="none" />
  <path d="M 486 670.5  C 484.32 670.5  483 669.18  483 667.5  C 483 665.82  484.32 664.5  486 664.5  C 487.68 664.5  489 665.82  489 667.5  C 489 669.18  487.68 670.5  486 670.5  " fill-rule="nonzero" fill="#797979" stroke="none" />
</svg>