<?xml version="1.0" encoding="utf-8"?>
<svg version="1.1" xmlns:xlink="http://www.w3.org/1999/xlink" width="12px" height="12px" viewBox="484 770.5  12 12" xmlns="http://www.w3.org/2000/svg">
  <path d="M 490 770.5  C 493.36 770.5  496 773.14  496 776.5  C 496 779.86  493.36 782.5  490 782.5  C 486.64 782.5  484 779.86  484 776.5  C 484 773.14  486.64 770.5  490 770.5  Z " fill-rule="nonzero" fill="#f0f0f0" stroke="none" />
  <path d="M 490 771  C 493.08 771  495.5 773.42  495.5 776.5  C 495.5 779.58  493.08 782  490 782  C 486.92 782  484.5 779.58  484.5 776.5  C 484.5 773.42  486.92 771  490 771  Z " stroke-width="1" stroke="#797979" fill="none" />
  <path d="M 490 779.5  C 488.32 779.5  487 778.18  487 776.5  C 487 774.82  488.32 773.5  490 773.5  C 491.68 773.5  493 774.82  493 776.5  C 493 778.18  491.68 779.5  490 779.5  " fill-rule="nonzero" fill="#797979" stroke="none" />
</svg>