<?xml version="1.0" encoding="utf-8"?>
<svg version="1.1" xmlns:xlink="http://www.w3.org/1999/xlink" width="72px" height="63px" xmlns="http://www.w3.org/2000/svg">
  <g transform="matrix(1 0 0 1 -327 -23 )">
    <path d="M 363 23  C 383.16 23  399 36.86  399 54.5  C 399 72.14  383.16 86  363 86  C 342.84 86  327 72.14  327 54.5  C 327 36.86  342.84 23  363 23  Z " fill-rule="nonzero" fill="#ffffff" stroke="none" />
    <path d="M 363 23.5  C 382.88 23.5  398.5 37.14  398.5 54.5  C 398.5 71.86  382.88 85.5  363 85.5  C 343.12 85.5  327.5 71.86  327.5 54.5  C 327.5 37.14  343.12 23.5  363 23.5  Z " stroke-width="1" stroke="#797979" fill="none" />
  </g>
</svg>