<?xml version="1.0" encoding="utf-8"?>
<svg version="1.1" xmlns:xlink="http://www.w3.org/1999/xlink" width="72px" height="63px" xmlns="http://www.w3.org/2000/svg">
  <g transform="matrix(1 0 0 1 -114 -22 )">
    <path d="M 150 22  C 170.16 22  186 35.86  186 53.5  C 186 71.14  170.16 85  150 85  C 129.84 85  114 71.14  114 53.5  C 114 35.86  129.84 22  150 22  Z " fill-rule="nonzero" fill="#81d3f8" stroke="none" />
    <path d="M 150 22.5  C 169.88 22.5  185.5 36.14  185.5 53.5  C 185.5 70.86  169.88 84.5  150 84.5  C 130.12 84.5  114.5 70.86  114.5 53.5  C 114.5 36.14  130.12 22.5  150 22.5  Z " stroke-width="1" stroke="#797979" fill="none" />
  </g>
</svg>