<?xml version="1.0" encoding="utf-8"?>
<svg version="1.1" xmlns:xlink="http://www.w3.org/1999/xlink" width="45px" height="13px" xmlns="http://www.w3.org/2000/svg">
  <defs>
    <mask fill="white" id="clip3">
      <path d="M 0 13  L 0 0  L 31 0  L 45 0  L 45 13  L 31 13  L 0 13  Z " fill-rule="evenodd" />
    </mask>
  </defs>
  <g transform="matrix(1 0 0 1 -591 -73 )">
    <path d="M 0 13  L 0 0  L 31 0  L 45 0  L 45 13  L 31 13  L 0 13  Z " fill-rule="nonzero" fill="#f2f2f2" stroke="none" transform="matrix(1 0 0 1 591 73 )" />
    <path d="M 0 13  L 0 0  L 31 0  L 45 0  L 45 13  L 31 13  L 0 13  Z " stroke-width="2" stroke="#797979" fill="none" transform="matrix(1 0 0 1 591 73 )" mask="url(#clip3)" />
  </g>
</svg>