<?xml version="1.0" encoding="utf-8"?>
<svg version="1.1" xmlns:xlink="http://www.w3.org/1999/xlink" width="13px" height="15px" xmlns="http://www.w3.org/2000/svg">
  <g transform="matrix(1 0 0 1 -373 -174 )">
    <path d="M 10.5532670454545 6.9140625  C 10.6086647727273 6.97798295454546  10.6363636363636 7.05965909090909  10.6363636363636 7.15909090909091  L 10.6363636363636 7.84090909090909  C 10.6363636363636 7.94034090909091  10.6086647727273 8.02201704545455  10.5532670454545 8.0859375  C 10.4978693181818 8.14985795454546  10.4270833333333 8.18181818181818  10.3409090909091 8.18181818181818  L 7.09090909090909 8.18181818181818  L 7.09090909090909 11.9318181818182  C 7.09090909090909 12.03125  7.06321022727273 12.1129261363636  7.0078125 12.1768465909091  C 6.95241477272727 12.2407670454545  6.88162878787879 12.2727272727273  6.79545454545455 12.2727272727273  L 6.20454545454546 12.2727272727273  C 6.11837121212121 12.2727272727273  6.04758522727273 12.2407670454545  5.9921875 12.1768465909091  C 5.93678977272727 12.1129261363636  5.90909090909091 12.03125  5.90909090909091 11.9318181818182  L 5.90909090909091 8.18181818181818  L 2.65909090909091 8.18181818181818  C 2.57291666666667 8.18181818181818  2.50213068181818 8.14985795454546  2.44673295454545 8.0859375  C 2.39133522727273 8.02201704545455  2.36363636363636 7.94034090909091  2.36363636363636 7.84090909090909  L 2.36363636363636 7.15909090909091  C 2.36363636363636 7.05965909090909  2.39133522727273 6.97798295454546  2.44673295454545 6.9140625  C 2.50213068181818 6.85014204545455  2.57291666666667 6.81818181818182  2.65909090909091 6.81818181818182  L 5.90909090909091 6.81818181818182  L 5.90909090909091 3.06818181818182  C 5.90909090909091 2.96875  5.93678977272727 2.88707386363636  5.9921875 2.82315340909091  C 6.04758522727273 2.75923295454545  6.11837121212121 2.72727272727273  6.20454545454546 2.72727272727273  L 6.79545454545455 2.72727272727273  C 6.88162878787879 2.72727272727273  6.95241477272727 2.75923295454545  7.0078125 2.82315340909091  C 7.06321022727273 2.88707386363636  7.09090909090909 2.96875  7.09090909090909 3.06818181818182  L 7.09090909090909 6.81818181818182  L 10.3409090909091 6.81818181818182  C 10.4270833333333 6.81818181818182  10.4978693181818 6.85014204545455  10.5532670454545 6.9140625  Z M 11.3842329545455 13.1356534090909  C 11.6735321969697 12.8018465909091  11.8181818181818 12.4005681818182  11.8181818181818 11.9318181818182  L 11.8181818181818 3.06818181818182  C 11.8181818181818 2.59943181818182  11.6735321969697 2.19815340909091  11.3842329545455 1.86434659090909  C 11.0949337121212 1.53053977272727  10.7471590909091 1.36363636363636  10.3409090909091 1.36363636363636  L 2.65909090909091 1.36363636363636  C 2.25284090909091 1.36363636363636  1.90506628787879 1.53053977272727  1.61576704545455 1.86434659090909  C 1.3264678030303 2.19815340909091  1.18181818181818 2.59943181818182  1.18181818181818 3.06818181818182  L 1.18181818181818 11.9318181818182  C 1.18181818181818 12.4005681818182  1.3264678030303 12.8018465909091  1.61576704545455 13.1356534090909  C 1.90506628787879 13.4694602272727  2.25284090909091 13.6363636363636  2.65909090909091 13.6363636363636  L 10.3409090909091 13.6363636363636  C 10.7471590909091 13.6363636363636  11.0949337121212 13.4694602272727  11.3842329545455 13.1356534090909  Z M 12.2198153409091 0.900213068181819  C 12.7399384469697 1.50035511363636  13 2.22301136363636  13 3.06818181818182  L 13 11.9318181818182  C 13 12.7769886363636  12.7399384469697 13.4996448863636  12.2198153409091 14.0997869318182  C 11.6996922348485 14.6999289772727  11.0733901515152 15  10.3409090909091 15  L 2.65909090909091 15  C 1.92660984848485 15  1.30030776515152 14.6999289772727  0.780184659090909 14.0997869318182  C 0.260061553030303 13.4996448863636  0 12.7769886363636  0 11.9318181818182  L 0 3.06818181818182  C 0 2.22301136363636  0.260061553030303 1.50035511363636  0.780184659090909 0.900213068181819  C 1.30030776515152 0.300071022727271  1.92660984848485 0  2.65909090909091 0  L 10.3409090909091 0  C 11.0733901515152 0  11.6996922348485 0.300071022727271  12.2198153409091 0.900213068181819  Z " fill-rule="nonzero" fill="#000000" stroke="none" transform="matrix(1 0 0 1 373 174 )" />
  </g>
</svg>