<?xml version="1.0" encoding="utf-8"?>
<svg version="1.1" xmlns:xlink="http://www.w3.org/1999/xlink" width="34px" height="36px" xmlns="http://www.w3.org/2000/svg">
  <g transform="matrix(1 0 0 1 -573 -143 )">
    <path d="M 2.61538461538462 27.6428571428571  L 2.61538461538462 33.4285714285714  L 8.5 33.4285714285714  L 8.5 27.6428571428571  L 2.61538461538462 27.6428571428571  Z M 9.80769230769231 27.6428571428571  L 9.80769230769231 33.4285714285714  L 16.3461538461538 33.4285714285714  L 16.3461538461538 27.6428571428571  L 9.80769230769231 27.6428571428571  Z M 2.61538461538462 19.9285714285714  L 2.61538461538462 26.3571428571429  L 8.5 26.3571428571429  L 8.5 19.9285714285714  L 2.61538461538462 19.9285714285714  Z M 9.80769230769231 19.9285714285714  L 9.80769230769231 26.3571428571429  L 16.3461538461538 26.3571428571429  L 16.3461538461538 19.9285714285714  L 9.80769230769231 19.9285714285714  Z M 2.61538461538462 12.8571428571429  L 2.61538461538462 18.6428571428571  L 8.5 18.6428571428571  L 8.5 12.8571428571429  L 2.61538461538462 12.8571428571429  Z M 17.6538461538462 27.6428571428571  L 17.6538461538462 33.4285714285714  L 24.1923076923077 33.4285714285714  L 24.1923076923077 27.6428571428571  L 17.6538461538462 27.6428571428571  Z M 9.80769230769231 12.8571428571429  L 9.80769230769231 18.6428571428571  L 16.3461538461538 18.6428571428571  L 16.3461538461538 12.8571428571429  L 9.80769230769231 12.8571428571429  Z M 25.5 27.6428571428571  L 25.5 33.4285714285714  L 31.3846153846154 33.4285714285714  L 31.3846153846154 27.6428571428571  L 25.5 27.6428571428571  Z M 17.6538461538462 19.9285714285714  L 17.6538461538462 26.3571428571429  L 24.1923076923077 26.3571428571429  L 24.1923076923077 19.9285714285714  L 17.6538461538462 19.9285714285714  Z M 10.2674278846154 9.45200892857143  C 10.3968349358974 9.32477678571428  10.4615384615385 9.17410714285714  10.4615384615385 9  L 10.4615384615385 3.21428571428571  C 10.4615384615385 3.04017857142857  10.3968349358974 2.88950892857143  10.2674278846154 2.76227678571429  C 10.1380208333333 2.63504464285714  9.98477564102564 2.57142857142857  9.80769230769231 2.57142857142857  L 8.5 2.57142857142857  C 8.32291666666667 2.57142857142857  8.16967147435897 2.63504464285714  8.04026442307692 2.76227678571429  C 7.91085737179487 2.88950892857143  7.84615384615385 3.04017857142857  7.84615384615385 3.21428571428571  L 7.84615384615385 9  C 7.84615384615385 9.17410714285714  7.91085737179487 9.32477678571428  8.04026442307692 9.45200892857143  C 8.16967147435897 9.57924107142857  8.32291666666667 9.64285714285714  8.5 9.64285714285714  L 9.80769230769231 9.64285714285714  C 9.98477564102564 9.64285714285714  10.1380208333333 9.57924107142857  10.2674278846154 9.45200892857143  Z M 25.5 19.9285714285714  L 25.5 26.3571428571429  L 31.3846153846154 26.3571428571429  L 31.3846153846154 19.9285714285714  L 25.5 19.9285714285714  Z M 17.6538461538462 12.8571428571429  L 17.6538461538462 18.6428571428571  L 24.1923076923077 18.6428571428571  L 24.1923076923077 12.8571428571429  L 17.6538461538462 12.8571428571429  Z M 25.5 12.8571428571429  L 25.5 18.6428571428571  L 31.3846153846154 18.6428571428571  L 31.3846153846154 12.8571428571429  L 25.5 12.8571428571429  Z M 25.9597355769231 9.45200892857143  C 26.0891426282051 9.32477678571428  26.1538461538462 9.17410714285714  26.1538461538462 9  L 26.1538461538462 3.21428571428571  C 26.1538461538462 3.04017857142857  26.0891426282051 2.88950892857143  25.9597355769231 2.76227678571429  C 25.830328525641 2.63504464285714  25.6770833333333 2.57142857142857  25.5 2.57142857142857  L 24.1923076923077 2.57142857142857  C 24.0152243589744 2.57142857142857  23.8619791666667 2.63504464285714  23.7325721153846 2.76227678571429  C 23.6031650641026 2.88950892857143  23.5384615384615 3.04017857142857  23.5384615384615 3.21428571428571  L 23.5384615384615 9  C 23.5384615384615 9.17410714285714  23.6031650641026 9.32477678571428  23.7325721153846 9.45200892857143  C 23.8619791666667 9.57924107142857  24.0152243589744 9.64285714285714  24.1923076923077 9.64285714285714  L 25.5 9.64285714285714  C 25.6770833333333 9.64285714285714  25.830328525641 9.57924107142857  25.9597355769231 9.45200892857143  Z M 33.2235576923077 5.90625  C 33.7411858974359 6.41517857142857  34 7.01785714285714  34 7.71428571428572  L 34 33.4285714285714  C 34 34.125  33.7411858974359 34.7276785714286  33.2235576923077 35.2366071428571  C 32.7059294871795 35.7455357142857  32.0929487179487 36  31.3846153846154 36  L 2.61538461538462 36  C 1.90705128205128 36  1.29407051282051 35.7455357142857  0.776442307692308 35.2366071428571  C 0.258814102564103 34.7276785714286  0 34.125  0 33.4285714285714  L 0 7.71428571428572  C 0 7.01785714285714  0.258814102564103 6.41517857142857  0.776442307692308 5.90625  C 1.29407051282051 5.39732142857142  1.90705128205128 5.14285714285714  2.61538461538462 5.14285714285714  L 5.23076923076923 5.14285714285714  L 5.23076923076923 3.21428571428571  C 5.23076923076923 2.33035714285714  5.55088141025641 1.57366071428571  6.19110576923077 0.94419642857143  C 6.83133012820513 0.314732142857143  7.60096153846154 0  8.5 0  L 9.80769230769231 0  C 10.7067307692308 0  11.4763621794872 0.314732142857143  12.1165865384615 0.94419642857143  C 12.7568108974359 1.57366071428571  13.0769230769231 2.33035714285714  13.0769230769231 3.21428571428571  L 13.0769230769231 5.14285714285714  L 20.9230769230769 5.14285714285714  L 20.9230769230769 3.21428571428571  C 20.9230769230769 2.33035714285714  21.2431891025641 1.57366071428571  21.8834134615385 0.94419642857143  C 22.5236378205128 0.314732142857143  23.2932692307692 0  24.1923076923077 0  L 25.5 0  C 26.3990384615385 0  27.1686698717949 0.314732142857143  27.8088942307692 0.94419642857143  C 28.4491185897436 1.57366071428571  28.7692307692308 2.33035714285714  28.7692307692308 3.21428571428571  L 28.7692307692308 5.14285714285714  L 31.3846153846154 5.14285714285714  C 32.0929487179487 5.14285714285714  32.7059294871795 5.39732142857142  33.2235576923077 5.90625  Z " fill-rule="nonzero" fill="#000000" stroke="none" transform="matrix(1 0 0 1 573 143 )" />
  </g>
</svg>