<?xml version="1.0" encoding="utf-8"?>
<svg version="1.1" xmlns:xlink="http://www.w3.org/1999/xlink" width="200px" height="50px" xmlns="http://www.w3.org/2000/svg">
  <g transform="matrix(1 0 0 1 -647 -91 )">
    <path d="M 647.5 120.666149068323  C 647.5 120.666149068323  647.5 96  647.5 96  C 647.5 93.5147186257614  649.514718625761 91.5  652 91.5  C 652 91.5  842 91.5  842 91.5  C 844.485281374239 91.5  846.5 93.5147186257614  846.5 96  C 846.5 96  846.5 120.666149068323  846.5 120.666149068323  C 846.5 123.151430442562  844.485281374239 125.166149068323  842 125.166149068323  C 842 125.166149068323  760.34974438379 125.166149068323  760.34974438379 125.166149068323  C 760.34974438379 125.166149068323  747.502247100114 139.000649717874  747.502247100114 139.000649717874  C 747.502247100114 139.000649717874  736.724145352064 125.166149068323  736.724145352064 125.166149068323  C 736.724145352064 125.166149068323  652 125.166149068323  652 125.166149068323  C 649.514718625761 125.166149068323  647.5 123.151430442562  647.5 120.666149068323  Z " fill-rule="nonzero" fill="#ffffff" stroke="none" />
    <path d="M 647 120.666149068323  C 647 120.666149068323  647 96  647 96  C 647 93.238576250846  649.238576250846 91  652 91  C 652 91  842 91  842 91  C 844.761423749154 91  847 93.238576250846  847 96  C 847 96  847 120.666149068323  847 120.666149068323  C 847 123.427572817477  844.761423749154 125.666149068323  842 125.666149068323  C 842 125.666149068323  760.567765567766 125.666149068323  760.567765567766 125.666149068323  C 760.567765567766 125.666149068323  747.468864468864 139.771367521367  747.468864468864 139.771367521367  C 747.468864468864 139.771367521367  736.479853479854 125.666149068323  736.479853479854 125.666149068323  C 736.479853479854 125.666149068323  652 125.666149068323  652 125.666149068323  C 649.238576250846 125.666149068323  647 123.427572817477  647 120.666149068323  Z M 648 120.666149068323  C 648 122.875288067646  649.790861000677 124.666149068323  652 124.666149068323  C 652 124.666149068323  736.968437224273 124.666149068323  736.968437224273 124.666149068323  C 736.968437224273 124.666149068323  747.535629731363 138.22993191438  747.535629731363 138.22993191438  C 747.535629731363 138.22993191438  760.131723199814 124.666149068323  760.131723199814 124.666149068323  C 760.131723199814 124.666149068323  842 124.666149068323  842 124.666149068323  C 844.209138999323 124.666149068323  846 122.875288067646  846 120.666149068323  C 846 120.666149068323  846 96  846 96  C 846 93.7908610006768  844.209138999323 92  842 92  C 842 92  652 92  652 92  C 649.790861000677 92  648 93.7908610006768  648 96  C 648 96  648 120.666149068323  648 120.666149068323  Z " fill-rule="nonzero" fill="#d7d7d7" stroke="none" />
  </g>
</svg>