<?xml version="1.0" encoding="utf-8"?>
<svg version="1.1" xmlns:xlink="http://www.w3.org/1999/xlink" width="24px" height="29px" xmlns="http://www.w3.org/2000/svg">
  <g transform="matrix(1 0 0 1 -1214 -79 )">
    <path d="M 8.57386363636364 11.044921875  C 8.67613636363636 11.158203125  8.72727272727273 11.3029513888889  9 11.4791666666667  L 9 22.3541666666667  C 8.72727272727273 22.5303819444444  8.67613636363636 22.6751302083333  8.57386363636364 22.7884114583333  C 8.47159090909091 22.9016927083333  8.34090909090909 22.9583333333333  8.18181818181818 22.9583333333333  L 7.09090909090909 22.9583333333333  C 6.93181818181818 22.9583333333333  6.80113636363637 22.9016927083333  6.69886363636364 22.7884114583333  C 6.59659090909091 22.6751302083333  6.54545454545455 22.5303819444444  7 22.3541666666667  L 7 11.4791666666667  C 6.54545454545455 11.3029513888889  6.59659090909091 11.158203125  6.69886363636364 11.044921875  C 6.80113636363637 10.931640625  6.93181818181818 10.875  7.09090909090909 10.875  L 8.18181818181818 10.875  C 8.34090909090909 10.875  8.47159090909091 10.931640625  8.57386363636364 11.044921875  Z M 12.9375 11.044921875  C 13.0397727272727 11.158203125  13.0909090909091 11.3029513888889  13 11.4791666666667  L 13 22.3541666666667  C 13.0909090909091 22.5303819444444  13.0397727272727 22.6751302083333  12.9375 22.7884114583333  C 12.8352272727273 22.9016927083333  12.7045454545455 22.9583333333333  12.5454545454545 22.9583333333333  L 11.4545454545455 22.9583333333333  C 11.2954545454545 22.9583333333333  11.1647727272727 22.9016927083333  11.0625 22.7884114583333  C 10.9602272727273 22.6751302083333  10.9090909090909 22.5303819444444  11 22.3541666666667  L 11 11.4791666666667  C 10.9090909090909 11.3029513888889  10.9602272727273 11.158203125  11.0625 11.044921875  C 11.1647727272727 10.931640625  11.2954545454545 10.875  11.4545454545455 10.875  L 12.5454545454545 10.875  C 12.7045454545455 10.875  12.8352272727273 10.931640625  12.9375 11.044921875  Z M 17.3011363636364 11.044921875  C 17.4034090909091 11.158203125  17.4545454545455 11.3029513888889  17 11.4791666666667  L 17 22.3541666666667  C 17.4545454545455 22.5303819444444  17.4034090909091 22.6751302083333  17.3011363636364 22.7884114583333  C 17.1988636363636 22.9016927083333  17.0681818181818 22.9583333333333  16.9090909090909 22.9583333333333  L 15.8181818181818 22.9583333333333  C 15.6590909090909 22.9583333333333  15.5284090909091 22.9016927083333  15.4261363636364 22.7884114583333  C 15.3238636363636 22.6751302083333  15.2727272727273 22.5303819444444  15 22.3541666666667  L 15 11.4791666666667  C 15.2727272727273 11.3029513888889  15.3238636363636 11.158203125  15.4261363636364 11.044921875  C 15.5284090909091 10.931640625  15.6590909090909 10.875  15.8181818181818 10.875  L 16.9090909090909 10.875  C 17.0681818181818 10.875  17.1988636363636 10.931640625  17.3011363636364 11.044921875  Z M 19.5170454545455 25.9130859375  C 19.5965909090909 25.6802300347222  19.6363636363636 25.4253472222222  19.6363636363636 25.1484375  L 19.6363636363636 7.25  L 4.36363636363636 7.25  L 4.36363636363636 25.1484375  C 4.36363636363636 25.4253472222222  4.40340909090909 25.6802300347222  4.48295454545455 25.9130859375  C 4.5625 26.1459418402778  4.64488636363636 26.3158637152778  4.73011363636364 26.4228515625  C 4.81534090909091 26.5298394097222  4.875 26.5833333333333  4.90909090909091 26.5833333333333  L 19.0909090909091 26.5833333333333  C 19.125 26.5833333333333  19.1846590909091 26.5298394097222  19.2698863636364 26.4228515625  C 19.3551136363636 26.3158637152778  19.4375 26.1459418402778  19.5170454545455 25.9130859375  Z M 9.01704545454546 2.62434895833333  L 8.18181818181818 4.83333333333333  L 15.8181818181818 4.83333333333333  L 15 2.62434895833333  C 14.9204545454545 2.51106770833333  14.8238636363636 2.44184027777778  14.7102272727273 2.41666666666667  L 9.30681818181818 2.41666666666667  C 9.19318181818182 2.44184027777778  9.09659090909091 2.51106770833333  9.01704545454546 2.62434895833333  Z M 23.8465909090909 5.00325520833333  C 23.9488636363636 5.11653645833333  24 5.26128472222222  24 5.4375  L 24 6.64583333333333  C 24 6.82204861111111  23.9488636363636 6.966796875  23.8465909090909 7.080078125  C 23.7443181818182 7.193359375  23.6136363636364 7.25  23.4545454545455 7.25  L 21.8181818181818 7.25  L 21.8181818181818 25.1484375  C 21.8181818181818 26.1931423611111  21.5511363636364 27.0962456597222  21.0170454545455 27.8577473958333  C 20.4829545454545 28.6192491319444  19.8409090909091 29  19.0909090909091 29  L 4.90909090909091 29  C 4.15909090909091 29  3.51704545454546 28.6318359375  2.98295454545455 27.8955078125  C 2.44886363636364 27.1591796875  2.18181818181818 26.2686631944444  2.18181818181818 25.2239583333333  L 2.18181818181818 7.25  L 0.545454545454545 7.25  C 0.386363636363636 7.25  0.255681818181818 7.193359375  0.153409090909091 7.080078125  C 0.0511363636363636 6.966796875  0 6.82204861111111  0 6.64583333333333  L 0 5.4375  C 0 5.26128472222222  0.0511363636363636 5.11653645833333  0.153409090909091 5.00325520833333  C 0.255681818181818 4.88997395833333  0.386363636363636 4.83333333333333  0.545454545454545 4.83333333333333  L 5.8125 4.83333333333333  L 7.00568181818182 1.68033854166667  C 7.17613636363637 1.21462673611111  7.48295454545455 0.818142361111109  7.92613636363636 0.490885416666668  C 8.36931818181818 0.16362847222222  8.81818181818182 0  9.27272727272727 0  L 14.7272727272727 0  C 15.1818181818182 0  15.6306818181818 0.16362847222222  16.0738636363636 0.490885416666668  C 16.5170454545455 0.818142361111109  16.8238636363636 1.21462673611111  16.9943181818182 1.68033854166667  L 18.1875 4.83333333333333  L 23.4545454545455 4.83333333333333  C 23.6136363636364 4.83333333333333  23.7443181818182 4.88997395833333  23.8465909090909 5.00325520833333  Z " fill-rule="nonzero" fill="#000000" stroke="none" transform="matrix(1 0 0 1 1214 79 )" />
  </g>
</svg>