<?xml version="1.0" encoding="utf-8"?>
<svg version="1.1" xmlns:xlink="http://www.w3.org/1999/xlink" width="200px" height="50px" xmlns="http://www.w3.org/2000/svg">
  <g transform="matrix(1 0 0 1 -526 -91 )">
    <path d="M 526.5 120.666149068323  C 526.5 120.666149068323  526.5 96  526.5 96  C 526.5 93.5147186257614  528.514718625761 91.5  531 91.5  C 531 91.5  721 91.5  721 91.5  C 723.485281374239 91.5  725.5 93.5147186257614  725.5 96  C 725.5 96  725.5 120.666149068323  725.5 120.666149068323  C 725.5 123.151430442562  723.485281374239 125.166149068323  721 125.166149068323  C 721 125.166149068323  639.34974438379 125.166149068323  639.34974438379 125.166149068323  C 639.34974438379 125.166149068323  626.502247100114 139.000649717874  626.502247100114 139.000649717874  C 626.502247100114 139.000649717874  615.724145352064 125.166149068323  615.724145352064 125.166149068323  C 615.724145352064 125.166149068323  531 125.166149068323  531 125.166149068323  C 528.514718625761 125.166149068323  526.5 123.151430442562  526.5 120.666149068323  Z " fill-rule="nonzero" fill="#ffffff" stroke="none" />
    <path d="M 526 120.666149068323  C 526 120.666149068323  526 96  526 96  C 526 93.238576250846  528.238576250846 91  531 91  C 531 91  721 91  721 91  C 723.761423749154 91  726 93.238576250846  726 96  C 726 96  726 120.666149068323  726 120.666149068323  C 726 123.427572817477  723.761423749154 125.666149068323  721 125.666149068323  C 721 125.666149068323  639.567765567766 125.666149068323  639.567765567766 125.666149068323  C 639.567765567766 125.666149068323  626.468864468864 139.771367521367  626.468864468864 139.771367521367  C 626.468864468864 139.771367521367  615.479853479854 125.666149068323  615.479853479854 125.666149068323  C 615.479853479854 125.666149068323  531 125.666149068323  531 125.666149068323  C 528.238576250846 125.666149068323  526 123.427572817477  526 120.666149068323  Z M 527 120.666149068323  C 527 122.875288067646  528.790861000677 124.666149068323  531 124.666149068323  C 531 124.666149068323  615.968437224273 124.666149068323  615.968437224273 124.666149068323  C 615.968437224273 124.666149068323  626.535629731363 138.22993191438  626.535629731363 138.22993191438  C 626.535629731363 138.22993191438  639.131723199814 124.666149068323  639.131723199814 124.666149068323  C 639.131723199814 124.666149068323  721 124.666149068323  721 124.666149068323  C 723.209138999323 124.666149068323  725 122.875288067646  725 120.666149068323  C 725 120.666149068323  725 96  725 96  C 725 93.7908610006768  723.209138999323 92  721 92  C 721 92  531 92  531 92  C 528.790861000677 92  527 93.7908610006768  527 96  C 527 96  527 120.666149068323  527 120.666149068323  Z " fill-rule="nonzero" fill="#d7d7d7" stroke="none" />
  </g>
</svg>