<?xml version="1.0" encoding="utf-8"?>
<svg version="1.1" xmlns:xlink="http://www.w3.org/1999/xlink" width="200px" height="112px" xmlns="http://www.w3.org/2000/svg">
  <g transform="matrix(1 0 0 1 -558 -285 )">
    <path d="M 558.5 370.825310559006  C 558.5 370.825310559006  558.5 290  558.5 290  C 558.5 287.514718625761  560.514718625761 285.5  563 285.5  C 563 285.5  753 285.5  753 285.5  C 755.485281374239 285.5  757.5 287.514718625761  757.5 290  C 757.5 290  757.5 370.825310559006  757.5 370.825310559006  C 757.5 373.310591933245  755.485281374239 375.325310559006  753 375.325310559006  C 753 375.325310559006  611.455571671364 375.325310559006  611.455571671364 375.325310559006  C 611.455571671364 375.325310559006  603.565833345503 396.010911953461  603.565833345503 396.010911953461  C 603.565833345503 396.010911953461  575.162775372404 375.325310559006  575.162775372404 375.325310559006  C 575.162775372404 375.325310559006  563 375.325310559006  563 375.325310559006  C 560.514718625761 375.325310559006  558.5 373.310591933245  558.5 370.825310559006  Z " fill-rule="nonzero" fill="#ffff80" stroke="none" />
    <path d="M 558 370.825310559006  C 558 370.825310559006  558 290  558 290  C 558 287.238576250846  560.238576250846 285  563 285  C 563 285  753 285  753 285  C 755.761423749154 285  758 287.238576250846  758 290  C 758 290  758 370.825310559006  758 370.825310559006  C 758 373.58673430816  755.761423749154 375.825310559006  753 375.825310559006  C 753 375.825310559006  611.799999999999 375.825310559006  611.799999999999 375.825310559006  C 611.799999999999 375.825310559006  603.799999999999 396.799999999999  603.799999999999 396.799999999999  C 603.799999999999 396.799999999999  575 375.825310559006  575 375.825310559006  C 575 375.825310559006  563 375.825310559006  563 375.825310559006  C 560.238576250846 375.825310559006  558 373.58673430816  558 370.825310559006  Z M 559 370.825310559006  C 559 373.034449558329  560.790861000677 374.825310559006  563 374.825310559006  C 563 374.825310559006  575.325550744807 374.825310559006  575.325550744807 374.825310559006  C 575.325550744807 374.825310559006  603.331666691007 395.221823906923  603.331666691007 395.221823906923  C 603.331666691007 395.221823906923  611.111143342729 374.825310559006  611.111143342729 374.825310559006  C 611.111143342729 374.825310559006  753 374.825310559006  753 374.825310559006  C 755.209138999323 374.825310559006  757 373.034449558329  757 370.825310559006  C 757 370.825310559006  757 290  757 290  C 757 287.790861000677  755.209138999323 286  753 286  C 753 286  563 286  563 286  C 560.790861000677 286  559 287.790861000677  559 290  C 559 290  559 370.825310559006  559 370.825310559006  Z " fill-rule="nonzero" fill="#d7d7d7" stroke="none" />
  </g>
</svg>