<?xml version="1.0" encoding="utf-8"?>
<svg version="1.1" xmlns:xlink="http://www.w3.org/1999/xlink" width="200px" height="112px" xmlns="http://www.w3.org/2000/svg">
  <g transform="matrix(1 0 0 1 -318 -273 )">
    <path d="M 318.5 358.825310559006  C 318.5 358.825310559006  318.5 278  318.5 278  C 318.5 275.514718625761  320.514718625761 273.5  323 273.5  C 323 273.5  513 273.5  513 273.5  C 515.485281374239 273.5  517.5 275.514718625761  517.5 278  C 517.5 278  517.5 358.825310559006  517.5 358.825310559006  C 517.5 361.310591933245  515.485281374239 363.325310559006  513 363.325310559006  C 513 363.325310559006  371.455571671364 363.325310559006  371.455571671364 363.325310559006  C 371.455571671364 363.325310559006  363.565833345503 384.010911953461  363.565833345503 384.010911953461  C 363.565833345503 384.010911953461  335.162775372404 363.325310559006  335.162775372404 363.325310559006  C 335.162775372404 363.325310559006  323 363.325310559006  323 363.325310559006  C 320.514718625761 363.325310559006  318.5 361.310591933245  318.5 358.825310559006  Z " fill-rule="nonzero" fill="#ffffff" stroke="none" />
    <path d="M 318 358.825310559006  C 318 358.825310559006  318 278  318 278  C 318 275.238576250846  320.238576250846 273  323 273  C 323 273  513 273  513 273  C 515.761423749154 273  518 275.238576250846  518 278  C 518 278  518 358.825310559006  518 358.825310559006  C 518 361.58673430816  515.761423749154 363.825310559006  513 363.825310559006  C 513 363.825310559006  371.799999999999 363.825310559006  371.799999999999 363.825310559006  C 371.799999999999 363.825310559006  363.799999999999 384.799999999999  363.799999999999 384.799999999999  C 363.799999999999 384.799999999999  335 363.825310559006  335 363.825310559006  C 335 363.825310559006  323 363.825310559006  323 363.825310559006  C 320.238576250846 363.825310559006  318 361.58673430816  318 358.825310559006  Z M 319 358.825310559006  C 319 361.034449558329  320.790861000677 362.825310559006  323 362.825310559006  C 323 362.825310559006  335.325550744807 362.825310559006  335.325550744807 362.825310559006  C 335.325550744807 362.825310559006  363.331666691007 383.221823906923  363.331666691007 383.221823906923  C 363.331666691007 383.221823906923  371.111143342729 362.825310559006  371.111143342729 362.825310559006  C 371.111143342729 362.825310559006  513 362.825310559006  513 362.825310559006  C 515.209138999323 362.825310559006  517 361.034449558329  517 358.825310559006  C 517 358.825310559006  517 278  517 278  C 517 275.790861000677  515.209138999323 274  513 274  C 513 274  323 274  323 274  C 320.790861000677 274  319 275.790861000677  319 278  C 319 278  319 358.825310559006  319 358.825310559006  Z " fill-rule="nonzero" fill="#d7d7d7" stroke="none" />
  </g>
</svg>